<?xml version="1.0" encoding="UTF-8"?>
<svg width="120px" height="31px" viewBox="0 0 120 31" version="1.1" xmlns="http://www.w3.org/2000/svg" xmlns:xlink="http://www.w3.org/1999/xlink">
    <title>Privyr Logo_NEW</title>
    <defs>
        <linearGradient x1="-0.00127594353%" y1="49.9994935%" x2="99.9974052%" y2="49.9994935%" id="linearGradient-1">
            <stop stop-color="#68C9FD" offset="0%"></stop>
            <stop stop-color="#D255FF" offset="99.93%"></stop>
        </linearGradient>
        <linearGradient x1="0.000119504166%" y1="50.000277%" x2="99.9999728%" y2="50.000277%" id="linearGradient-2">
            <stop stop-color="#8D6FFF" offset="0%"></stop>
            <stop stop-color="#8779FF" offset="30.07%"></stop>
            <stop stop-color="#7693FF" offset="80.74%"></stop>
            <stop stop-color="#6E9FFF" offset="99.97%"></stop>
        </linearGradient>
    </defs>
    <g id="Page-1" stroke="none" stroke-width="1" fill="none" fill-rule="evenodd">
        <g id="Privyr-Logo_NEW" fill-rule="nonzero">
            <g id="Logo_x2F_Privyr_x2F_Appbar_x5F_32px_00000181766183616229469140000011678409031146468756_" transform="translate(-0, 0)" fill="url(#linearGradient-1)">
                <path d="M20.4592984,0 C17.8856532,0.00967763828 13.6288509,1.2349508 11.7281313,5.49269087 L11.7281313,5.49269087 C10.7579548,7.67605022 10.470823,10.6790635 10.2928941,13.0303088 L10.2928941,13.0303088 C10.1938104,14.4331456 10.2334439,16.0038683 10.2730774,17.6238208 L10.2730774,17.6238208 C10.3224084,20.1627282 10.3422251,22.8005158 9.68911626,25.0133288 L9.68911626,25.0133288 C9.19411963,26.7123855 8.26357657,28.1253207 6.77858669,29.2020631 L6.77858669,29.2020631 C4.65018552,30.7433322 2.66050146,30.3381337 2.66050146,30.3381337 L2.66050146,30.3381337 C11.5004497,32.8669427 14.4704295,27.5720122 15.4996346,24.1638005 L15.4996346,24.1638005 C16.1034124,22.1584255 16.3015797,19.7478521 16.6085282,17.6734713 L16.6085282,17.6734713 C17.0934057,14.4234679 17.8359006,10.0171971 18.8258939,6.67841194 L18.8258939,6.67841194 C20.3998482,1.29427893 25.4978075,1.08684086 25.4978075,1.08684086 L25.4978075,1.08684086 C25.4978075,1.08684086 23.2306892,0.0100984052 20.4786935,0.0100984052 L20.4786935,0.0100984052 C20.468996,0 20.4592984,0 20.4592984,0 M23.419159,2.45980319 C22.1618507,3.17089922 21.1916742,3.84286393 20.2413144,5.61134713 L20.2413144,5.61134713 C26.0025017,8.53567696 25.6563414,12.6453071 25.6563414,12.6453071 L25.6563414,12.6453071 C25.6563414,12.6453071 25.1120137,13.0799593 23.6666573,13.939586 L23.6666573,13.939586 L23.6666573,13.939586 L23.6666573,13.939586 C22.1125197,14.8484425 20.073083,15.4312046 17.8359006,15.9054089 L17.8359006,15.9054089 C17.736817,16.5378215 17.6377333,17.1698134 17.5390713,17.802226 L17.5390713,17.802226 L17.5293737,17.8910078 C19.6577749,17.63434 21.7166067,17.3675738 23.5679953,16.823943 L23.5679953,16.823943 C28.2008939,15.4606583 31.4082528,12.5561045 31.0321565,7.61672209 L31.0321565,7.61672209 C30.8441084,5.13714286 28.7060097,2.94410587 26.4490106,1.70915507 L26.4490106,1.70915507 C26.3798628,1.69947717 26.3102935,1.69947717 26.2411457,1.69947717 L26.2411457,1.69947717 C25.2604284,1.69905667 23.8842197,2.19303699 23.419159,2.45980319 M25.6563414,12.6448863 C25.6563414,12.6448863 25.5968912,12.7336681 25.3198786,12.9411062 L25.3198786,12.9411062 L25.6563414,12.6448863 L25.6563414,12.6448863 M1.17551158,21.753227 C-0.418259501,23.7981541 -0.338992579,26.5642755 1.09624466,28.6685307 L1.09624466,28.6685307 C1.37325725,29.0737292 1.63087475,29.4389549 1.87837306,29.6266169 L1.87837306,29.6266169 L1.95763998,29.666169 C3.5117776,29.7848252 4.27408927,29.5277367 4.56122105,29.330397 L4.56122105,29.330397 C4.13537216,28.8759688 3.2048291,27.5619138 3.01678098,26.1788531 L3.01678098,26.1788531 C2.92781651,25.5464404 2.99696425,24.8450221 3.34354621,24.1044723 L3.34354621,24.1044723 C4.25427254,22.0990974 6.0263942,20.6171564 8.48113897,19.6885239 L8.48113897,19.6885239 C8.76827074,19.5799661 9.05540252,19.4810859 9.35223184,19.3822056 L9.35223184,19.3822056 C9.35223184,18.7893451 9.34253429,18.206583 9.33241511,17.6334985 L9.33241511,17.6334985 L9.33241511,17.5447167 C5.95682483,18.3551137 2.92739487,19.5307363 1.17551158,21.753227" id="Logo-Privyr-100px_00000097497779658725122460000013544527151093457826_"></path>
            </g>
            <path d="M50.4875478,5.70012894 C51.4476051,5.70012894 52.3486339,5.98667119 53.2100292,6.55975568 C54.0714246,7.13284018 54.7641669,7.90326434 55.2886778,8.86135053 C55.8131887,9.82953512 56.0805037,10.8768239 56.0805037,12.0225721 C56.0805037,13.148965 55.8131887,14.1958331 55.2886778,15.1741161 C54.7641669,16.1519783 54.0710029,16.9228232 53.2100292,17.4954869 C52.3490555,18.0681507 51.4379076,18.3551137 50.4875478,18.3551137 L45.5974533,18.3551137 L45.5974533,23.6698202 C45.5974533,24.1734781 45.4490387,24.5883543 45.1517877,24.904771 C44.8549584,25.2207669 44.4590454,25.3789752 43.9737463,25.3789752 C43.5086856,25.3789752 43.1224702,25.2110892 42.8256409,24.8849949 C42.5288116,24.5589006 42.3799753,24.1541228 42.3799753,23.6601425 L42.3799753,7.41896166 C42.3799753,6.93507974 42.5482067,6.51978283 42.8749719,6.19410926 C43.2017371,5.86801493 43.6073477,5.70012894 44.1023443,5.70012894 C44.0829492,5.70012894 50.4875478,5.70012894 50.4875478,5.70012894 Z M50.4875478,15.1442416 C50.8438273,15.1442416 51.2001068,14.9961317 51.5466888,14.6898134 C51.8932707,14.3834951 52.1702833,13.9984934 52.3882674,13.5242891 C52.6062514,13.0500848 52.7150326,12.5464269 52.7150326,12.0225721 C52.7150326,11.4991381 52.6062514,10.9950594 52.3882674,10.5208551 C52.1702833,10.0466508 51.8932707,9.66122837 51.5466888,9.36500848 C51.2001068,9.0687886 50.8539465,8.93035629 50.4875478,8.93035629 L45.5974533,8.93035629 L45.5974533,15.1442416 L50.4875478,15.1442416 L50.4875478,15.1442416 Z M66.860805,10.0567492 C67.4249494,10.0567492 67.9001293,10.2149576 68.2762255,10.5309535 C68.662441,10.8469494 68.8504891,11.2222735 68.8504891,11.6573465 C68.8504891,12.2401086 68.7020744,12.6747608 68.4048235,12.961303 C68.1075725,13.2478453 67.751293,13.3959552 67.3355633,13.3959552 C67.0585507,13.3959552 66.7317855,13.3269494 66.375506,13.1981948 C66.3160558,13.1784187 66.1971554,13.1388666 65.9994097,13.0896369 C65.8012424,13.0303088 65.5933776,13.0008551 65.365696,13.0008551 C64.8808185,13.0008551 64.4056386,13.148965 63.959973,13.4552833 C63.5143074,13.7515032 63.1382112,14.2059315 62.8510794,14.818568 C62.5639476,15.4312046 62.4155329,16.152399 62.4155329,17.0019274 L62.4155329,23.6597218 C62.4155329,24.1436037 62.2569991,24.5589006 61.940353,24.8845741 C61.623707,25.2106685 61.2176748,25.3785545 60.7327974,25.3785545 C60.2479199,25.3785545 59.8418878,25.2106685 59.5252417,24.8845741 C59.2085957,24.5584798 59.0500618,24.1537021 59.0500618,23.6597218 L59.0500618,12.0520258 C59.0500618,11.5681439 59.2085957,11.152847 59.5252417,10.8271734 C59.8418878,10.5010791 60.2479199,10.3331931 60.7327974,10.3331931 C61.2176748,10.3331931 61.623707,10.5010791 61.940353,10.8271734 C62.2569991,11.1532677 62.4155329,11.5580455 62.4155329,12.0520258 L62.4155329,12.4176722 C62.8510794,11.647248 63.4649764,11.0640652 64.2766191,10.6592874 C65.0789858,10.2540889 65.9403812,10.0567492 66.860805,10.0567492 Z M74.4240499,23.6597218 C74.4240499,24.1436037 74.2655161,24.5589006 73.94887,24.8845741 C73.632224,25.2106685 73.2261918,25.3785545 72.7413144,25.3785545 C72.2564369,25.3785545 71.8504048,25.2106685 71.5337587,24.8845741 C71.2171127,24.5584798 71.0585788,24.1537021 71.0585788,23.6597218 L71.0585788,12.0520258 C71.0585788,11.5681439 71.2171127,11.152847 71.5337587,10.8271734 C71.8504048,10.5010791 72.2564369,10.3331931 72.7413144,10.3331931 C73.2261918,10.3331931 73.632224,10.5010791 73.94887,10.8271734 C74.2655161,11.1532677 74.4240499,11.5580455 74.4240499,12.0520258 L74.4240499,23.6597218 Z M72.7113785,8.51548015 C72.0776647,8.51548015 71.6223016,8.41659993 71.3651057,8.20916186 C71.0977906,8.00172379 70.9691927,7.63607737 70.9691927,7.11264337 L70.9691927,6.57911096 C70.9691927,6.05567696 71.1079098,5.69003054 71.3950416,5.48259247 C71.6720542,5.27515439 72.1274174,5.17627418 72.7413144,5.17627418 C73.3948448,5.17627418 73.8599056,5.27515439 74.117523,5.48259247 C74.3747189,5.69003054 74.513436,6.05567696 74.513436,6.57911096 L74.513436,7.11264337 C74.513436,7.65585341 74.3747189,8.02149983 74.1074039,8.21926026 C73.8299696,8.41659993 73.3644873,8.51548015 72.7113785,8.51548015 Z M89.4409152,10.3529691 C89.8865808,10.3529691 90.2626771,10.5010791 90.5696256,10.7876213 C90.8664549,11.0741636 91.0152912,11.43981 91.0152912,11.8643638 C91.0152912,12.0915779 90.9360243,12.3680217 90.7876096,12.7042145 L85.5311165,24.2921344 C85.4025186,24.6081303 85.2043512,24.8652189 84.9568529,25.0528809 C84.6996571,25.2405429 84.4222228,25.3394231 84.0954576,25.3591992 L83.8382617,25.3886529 C83.5216157,25.3886529 83.2243647,25.2897727 82.9473521,25.092433 C82.6703396,24.8950933 82.4624747,24.6283271 82.3136384,24.2921344 L77.0866595,12.7138921 C76.9580616,12.4176722 76.8884922,12.1113539 76.8884922,11.8147133 C76.8884922,11.4393892 77.0470261,11.1036172 77.3636721,10.7872005 C77.6803182,10.4808823 78.0762312,10.3230947 78.5417135,10.3230947 C78.897993,10.3230947 79.2247583,10.4118765 79.5215876,10.5995385 C79.8184169,10.7872005 80.0460985,11.0539667 80.1949348,11.3897387 L84.0756409,20.2708653 L87.9264111,11.4191924 C88.0748257,11.0636444 88.2826906,10.7867798 88.5403081,10.6092162 C88.7979256,10.4316525 89.1242692,10.3529691 89.4409152,10.3529691 Z M104.844418,10.3432915 C105.329295,10.3432915 105.735327,10.5111775 106.051973,10.8372718 C106.368619,11.1633661 106.527153,11.5681439 106.527153,12.0621242 L106.527153,24.0055921 C106.527153,26.4456193 105.873623,28.2141025 104.557286,29.330397 C103.240527,30.4466916 101.488644,31 99.3007927,31 C98.6670789,31 98.0139701,30.9507703 97.3507421,30.8417917 C96.6875141,30.7332338 96.1431864,30.6048999 95.7371543,30.4365931 C94.8167304,30.041493 94.3613672,29.498283 94.3613672,28.8065422 C94.3613672,28.6782083 94.3908815,28.5300984 94.4406341,28.3617917 C94.5494153,27.9469155 94.7475826,27.6309196 95.0148977,27.4234815 C95.2919103,27.205945 95.5790421,27.0973872 95.8961097,27.0973872 C96.0841579,27.0973872 96.2625084,27.1268409 96.4307398,27.186169 C96.5593378,27.2454971 96.7971385,27.3342789 97.1234821,27.4626128 C97.4502474,27.5909467 97.7968293,27.6995046 98.1628064,27.7887072 C98.5292051,27.877489 98.9053013,27.9170411 99.3012143,27.9170411 C100.62767,27.9170411 101.607544,27.6304988 102.241258,27.0574143 C102.864853,26.4843298 103.181499,25.5064676 103.181499,24.1234069 L103.181499,23.846963 C102.211322,25.0621378 100.686699,25.6743536 98.6278671,25.6743536 C97.6576906,25.6743536 96.7865977,25.4471395 96.0441028,24.9830336 C95.2919103,24.5286054 94.7176467,23.8865151 94.301917,23.0765389 C93.8861873,22.2665626 93.68802,21.3278317 93.68802,20.2809637 L93.68802,12.0520258 C93.68802,11.5681439 93.8465539,11.152847 94.1631999,10.8271734 C94.479846,10.5010791 94.8858781,10.3331931 95.3707556,10.3331931 C95.855633,10.3331931 96.2616652,10.5010791 96.5783112,10.8271734 C96.8949573,11.1532677 97.0534911,11.5580455 97.0534911,12.0520258 L97.0534911,19.2437733 C97.0534911,20.4290736 97.310687,21.2689243 97.8255003,21.7923583 C98.3403137,22.3061147 99.0925062,22.5627825 100.092619,22.5627825 C101.062795,22.5627825 101.825107,22.2762402 102.359737,21.7031558 C102.894367,21.1300713 103.161682,20.3104174 103.161682,19.2433526 L103.161682,12.0520258 C103.161682,11.5681439 103.320216,11.152847 103.636862,10.8271734 C103.963206,10.5010791 104.359119,10.3432915 104.844418,10.3432915 Z M118.010316,10.0567492 C118.57446,10.0567492 119.04964,10.2149576 119.425736,10.5309535 C119.811952,10.8469494 120,11.2222735 120,11.6573465 C120,12.2401086 119.851585,12.6747608 119.544637,12.961303 C119.237688,13.2478453 118.891106,13.3959552 118.475377,13.3959552 C118.198364,13.3959552 117.871599,13.3269494 117.515319,13.1981948 C117.455869,13.1784187 117.336969,13.1388666 117.139223,13.0896369 C116.941056,13.0303088 116.733191,13.0008551 116.505509,13.0008551 C116.020632,13.0008551 115.545452,13.148965 115.099786,13.4552833 C114.644423,13.7515032 114.278025,14.2059315 113.990893,14.818568 C113.703761,15.4312046 113.555346,16.152399 113.555346,17.0019274 L113.555346,23.6597218 C113.555346,24.1436037 113.396812,24.5589006 113.080166,24.8845741 C112.76352,25.2106685 112.357488,25.3785545 111.872611,25.3785545 C111.387733,25.3785545 110.981701,25.2106685 110.665055,24.8845741 C110.348409,24.5584798 110.189875,24.1537021 110.189875,23.6597218 L110.189875,12.0520258 C110.189875,11.5681439 110.348409,11.152847 110.665055,10.8271734 C110.981701,10.5010791 111.387733,10.3331931 111.872611,10.3331931 C112.357488,10.3331931 112.76352,10.5010791 113.080166,10.8271734 C113.396812,11.1532677 113.555346,11.5580455 113.555346,12.0520258 L113.555346,12.4176722 C113.990893,11.647248 114.60479,11.0640652 115.416432,10.6592874 C116.228497,10.2540889 117.08947,10.0567492 118.010316,10.0567492 Z" id="Privyr-Quicksand-60px_00000044877416552531971650000009581115803691294615_" fill="url(#linearGradient-2)"></path>
        </g>
    </g>
</svg>